<svg xmlns="http://www.w3.org/2000/svg" viewBox="0 0 24 24" width="24" height="24" fill="none" stroke="currentColor" stroke-width="1.7" stroke-linecap="round" stroke-linejoin="round">
<path d="M12 3.2c-4.4 0-7.5 3-7.5 7 0 2.3 1 4 2.4 5.1.5.4.8 1 .8 1.6v.8c0 .8.6 1.4 1.4 1.4h5.8c.8 0 1.4-.6 1.4-1.4v-.8c0-.6.3-1.2.8-1.6 1.4-1.1 2.4-2.8 2.4-5.1 0-4-3.1-7-7.5-7z"/>
<circle cx="8.8" cy="11" r="1.8" fill="currentColor" stroke="none"/>
<circle cx="15.2" cy="11" r="1.8" fill="currentColor" stroke="none"/>
<path d="M12 13.5l-.9 2.2h1.8z" fill="currentColor" stroke="none"/>
<path d="M9.5 19.5v1.3M12 19.5v1.3M14.5 19.5v1.3"/>
</svg>
